<svg xmlns="http://www.w3.org/2000/svg" version="1.1" xmlns:xlink="http://www.w3.org/1999/xlink" width="31.88" height="32"><svg id="SvgjsSvg1001" data-name="Layer 1" xmlns="http://www.w3.org/2000/svg" viewBox="0 0 31.88 32">
  <defs>
    <style>
      .cls-1 {
        fill: #f26401;
      }
    </style>
  </defs>
  <path class="cls-1" d="M14.9.32c13.16-.87,21.45,13.74,14.03,24.64-7.65,11.23-25.43,7.77-28.37-5.42C-1.57,10,5.17.96,14.9.32ZM14.9,2.15C3.5,3.06-2.13,16.31,5.32,25.06c6.22,7.3,17.98,6.19,22.74-2.12C33.6,13.24,25.98,1.26,14.9,2.15Z"></path>
  <g>
    <path class="cls-1" d="M13.85,21.41h-2.42v-4.74c0-.65-.12-1.13-.35-1.44-.23-.32-.58-.48-1.06-.48s-.86.18-1.17.54-.45.82-.45,1.38v4.74h-2.43v-12.03h2.43v4.96h.03c.31-.49.68-.86,1.11-1.1.43-.24.92-.36,1.46-.36.95,0,1.66.29,2.13.86.47.57.71,1.43.71,2.56v5.11Z"></path>
    <path class="cls-1" d="M20.22,11.18c-.15-.07-.29-.13-.41-.15-.12-.03-.26-.04-.41-.04-.36,0-.63.11-.82.32-.19.21-.28.51-.28.9v.89h1.9v1.79h-1.9v6.53h-2.41v-6.53h-1.4v-1.79h1.4v-1.03c0-.89.3-1.6.9-2.14.6-.54,1.39-.81,2.35-.81.35,0,.65.02.89.06.24.04.49.1.76.18l-.56,1.82Z"></path>
    <path class="cls-1" d="M20.02,20.71l1.01-1.63c.29.22.62.4,1,.55.38.15.8.23,1.27.23.35,0,.64-.06.87-.19.22-.13.34-.33.34-.59,0-.21-.09-.38-.26-.5-.17-.12-.5-.24-.97-.35-1.03-.22-1.77-.53-2.22-.93-.45-.4-.67-.96-.67-1.67,0-.84.33-1.5,1-2,.66-.5,1.48-.75,2.45-.75.5,0,.97.06,1.42.19.45.13.87.32,1.26.58l-.91,1.57c-.34-.21-.65-.37-.95-.46-.29-.1-.6-.15-.91-.15-.36,0-.65.07-.86.21-.22.14-.33.31-.33.53,0,.24.1.41.3.53.2.11.58.23,1.14.35.96.2,1.65.51,2.07.92.42.41.63.97.63,1.68,0,.84-.32,1.52-.95,2.03-.63.51-1.47.77-2.52.77-.58,0-1.12-.07-1.64-.22-.52-.15-1.03-.37-1.54-.68Z"></path>
  </g>
</svg><style>@media (prefers-color-scheme: light) { :root { filter: none; } }
@media (prefers-color-scheme: dark) { :root { filter: none; } }
</style></svg>